<?xml version="1.0" encoding="UTF-8" standalone="no"?>
<!-- Generator: Adobe Illustrator 19.0.0, SVG Export Plug-In . SVG Version: 6.00 Build 0)  -->

<svg
   version="1.1"
   id="Layer_1"
   x="0px"
   y="0px"
   viewBox="0 0 496 496"
   style="enable-background:new 0 0 496 496;"
   xml:space="preserve"
   sodipodi:docname="mati-desktop.svg"
   inkscape:version="1.2.1 (9c6d41e410, 2022-07-14, custom)"
   xmlns:inkscape="http://www.inkscape.org/namespaces/inkscape"
   xmlns:sodipodi="http://sodipodi.sourceforge.net/DTD/sodipodi-0.dtd"
   xmlns="http://www.w3.org/2000/svg"
   xmlns:svg="http://www.w3.org/2000/svg"><defs
   id="defs51" /><sodipodi:namedview
   id="namedview49"
   pagecolor="#ffffff"
   bordercolor="#000000"
   borderopacity="0.25"
   inkscape:showpageshadow="2"
   inkscape:pageopacity="0.0"
   inkscape:pagecheckerboard="0"
   inkscape:deskcolor="#d1d1d1"
   showgrid="false"
   inkscape:zoom="1.0362903"
   inkscape:cx="38.599222"
   inkscape:cy="217.12062"
   inkscape:window-width="1366"
   inkscape:window-height="690"
   inkscape:window-x="0"
   inkscape:window-y="27"
   inkscape:window-maximized="1"
   inkscape:current-layer="Layer_1" />
<path
   style="fill:#5656e3;fill-opacity:1"
   d="M248.84,280h-1.688l-61.08-232H0v64h19.064C26.904,112,40,120.032,40,126.768v243.784  C40,377.28,26.904,384,19.064,384H0v64h152v-64h-40V128h1.784l85.736,320h67.248l86.872-320H352v256h-32v64h176v-64h-19.616  c-7.272,0-20.384-6.72-20.384-13.456V126.768c0-6.736,13.112-14.768,20.384-14.768H496V48H310.496L248.84,280z"
   id="path2" />
<g
   id="g10"
   style="fill:#3da8f6;fill-opacity:1">
	<path
   style="fill:#3da8f6;fill-opacity:1"
   d="M112,150.416C88,145.8,56,139.848,40,132.8v237.752C40,377.28,26.904,384,19.064,384H0v64h152v-64   h-40V150.416z"
   id="path4" />
	<path
   style="fill:#3da8f6;fill-opacity:1"
   d="M456,370.544V132.8c-32,9.544-64,17.04-104,22V384h-32v64h176v-64h-19.616   C469.112,384,456,377.28,456,370.544z"
   id="path6" />
	<path
   style="fill:#3da8f6;fill-opacity:1"
   d="M280.824,161.56L248.84,280h-1.688l-31.68-118.44c-33.536-1.256-64.608-2.72-94.736-7.584   L199.52,448h67.248l78.696-290.008C324.328,160.528,303.424,160.704,280.824,161.56z"
   id="path8" />
</g>
<path
   d="M112,231.112c-24-6.496-56-14.856-72-24.792v164.224C40,377.28,26.904,384,19.064,384H0v64h152v-64h-40V231.112z"
   id="path12"
   style="fill:#333333;fill-opacity:0.74000001" />
<path
   d="M257.568,247.32L248.84,280h-1.688l-8.64-32.68c-33.16-0.504-64.376-1.368-94.584-6.816L199.52,448h67.248l55.416-204.216  C301.152,246.392,279.84,246.984,257.568,247.32z"
   id="path14"
   style="fill:#333333;fill-opacity:0.74000001" />
<path
   d="M456,370.544V206.312c-24,13.424-64,23.976-104,30.952V384h-32v64h176v-64h-19.616C469.112,384,456,377.28,456,370.544z"
   id="path16"
   style="fill:#333333;fill-opacity:0.74000001" />
<g
   id="g18">
</g>
<g
   id="g20">
</g>
<g
   id="g22">
</g>
<g
   id="g24">
</g>
<g
   id="g26">
</g>
<g
   id="g28">
</g>
<g
   id="g30">
</g>
<g
   id="g32">
</g>
<g
   id="g34">
</g>
<g
   id="g36">
</g>
<g
   id="g38">
</g>
<g
   id="g40">
</g>
<g
   id="g42">
</g>
<g
   id="g44">
</g>
<g
   id="g46">
</g>
</svg>
